<svg xmlns="http://www.w3.org/2000/svg" viewBox="-773 1160.4 64 64"><path d="M-713 1185.4v-10c0-2.2-1.8-4-4-4h-52c-2.2 0-4 1.8-4 4v34c0 2.2 1.8 4 4 4h52c2.2 0 4-1.8 4-4v-10h4v-14h-4zm-2 24c0 1.1-.9 2-2 2h-52c-1.1 0-2-.9-2-2v-34c0-1.1.9-2 2-2h52c1.1 0 2 .9 2 2v10h-11c-3.9 0-7 3.1-7 7s3.1 7 7 7h11v10zm4-12h-15c-2.8 0-5-2.2-5-5s2.2-5 5-5h15v10z"/><circle cx="-726" cy="1192.4" r="3"/><path d="M-755 1185.1l3.1.1c.5 0 1.1.1 1.7.3.9.4 1.5.8 1.8 1.5h-5.5s-.4.6-1.2 1.7h6.9c0 .3 0 .5-.1.7-.6 1.6-2.2 2.5-4.7 2.5-.5 0-1 0-1.4-.1V1193.5s2.3 2.7 6.8 8h2.6v-.3l-5.7-6.9c-.5-.6-.8-.9-.8-1 1 0 2.1-.3 3.2-.8.6-.2 1.2-.8 1.9-1.6.5-.8.8-1.5.8-2.1h2.1s.4-.6 1.1-1.7h-3.4c-.2-.7-.4-1.3-.9-1.8h3.1c.1-.1.5-.6 1.2-1.7H-754c.1-.2-.2.4-1 1.5z"/></svg>