<svg xmlns="http://www.w3.org/2000/svg" viewBox="-773 1160.4 64 64"><path fill="none" d="M-729 1190.4h12v2h-12zM-759 1202.4h10v2h-10z"/><path d="M-731 1188.4v6h16v-6h-16zm14 4h-12v-2h12v2zM-767 1200.4v6h20v-6h-20zm18 4h-10v-2h10v2z"/><path d="M-713 1174.4h-5.9l-2 2h7.9c1.1 0 2 .9 2 2v28c0 1.1-.9 2-2 2h-56c-1.1 0-2-.9-2-2v-28c0-1.1.9-2 2-2h33.9l2-2H-769c-2.2 0-4 1.8-4 4v28c0 2.2 1.8 4 4 4h56c2.2 0 4-1.8 4-4v-28c0-2.2-1.8-4-4-4z"/><path d="M-715 1184.4h-13.9l-2 2h15.9M-767 1184.4v2h24.4l.4-2M-767 1192.4h34v2h-34zM-715 1178.4h-7.9l-2 2h9.9M-731 1204.4h16v2h-16zM-734.8 1187.5l17-17c1.2-1.2 1.2-3.1 0-4.2-.6-.6-1.4-.9-2.1-.9s-1.5.3-2.1.9l-17 17 4.2 4.2zM-741.2 1189.7l5.3-1.1-4.3-4.3"/></svg>